<svg width="18" height="18" viewBox="0 0 18 18" fill="none" xmlns="http://www.w3.org/2000/svg">
<path d="M8.16675 9.83332V12.3333C8.16675 12.5694 8.24661 12.7674 8.40633 12.9271C8.56605 13.0868 8.76397 13.1667 9.00008 13.1667C9.23619 13.1667 9.43411 13.0868 9.59383 12.9271C9.75355 12.7674 9.83342 12.5694 9.83342 12.3333V9.83332H12.3334C12.5695 9.83332 12.7674 9.75346 12.9272 9.59374C13.0869 9.43402 13.1667 9.2361 13.1667 8.99999C13.1667 8.76388 13.0869 8.56596 12.9272 8.40624C12.7674 8.24652 12.5695 8.16666 12.3334 8.16666H9.83342V5.66666C9.83342 5.43055 9.75355 5.23263 9.59383 5.07291C9.43411 4.91318 9.23619 4.83332 9.00008 4.83332C8.76397 4.83332 8.56605 4.91318 8.40633 5.07291C8.24661 5.23263 8.16675 5.43055 8.16675 5.66666V8.16666H5.66675C5.43064 8.16666 5.23272 8.24652 5.073 8.40624C4.91328 8.56596 4.83342 8.76388 4.83342 8.99999C4.83342 9.2361 4.91328 9.43402 5.073 9.59374C5.23272 9.75346 5.43064 9.83332 5.66675 9.83332H8.16675ZM9.00008 17.3333C7.8473 17.3333 6.76397 17.1146 5.75008 16.6771C4.73619 16.2396 3.85425 15.6458 3.10425 14.8958C2.35425 14.1458 1.7605 13.2639 1.323 12.25C0.885498 11.2361 0.666748 10.1528 0.666748 8.99999C0.666748 7.84721 0.885498 6.76388 1.323 5.74999C1.7605 4.7361 2.35425 3.85416 3.10425 3.10416C3.85425 2.35416 4.73619 1.76041 5.75008 1.32291C6.76397 0.885406 7.8473 0.666656 9.00008 0.666656C10.1529 0.666656 11.2362 0.885406 12.2501 1.32291C13.264 1.76041 14.1459 2.35416 14.8959 3.10416C15.6459 3.85416 16.2397 4.7361 16.6772 5.74999C17.1147 6.76388 17.3334 7.84721 17.3334 8.99999C17.3334 10.1528 17.1147 11.2361 16.6772 12.25C16.2397 13.2639 15.6459 14.1458 14.8959 14.8958C14.1459 15.6458 13.264 16.2396 12.2501 16.6771C11.2362 17.1146 10.1529 17.3333 9.00008 17.3333Z" fill="white"/>
</svg>
