<svg width="34" height="32" viewBox="0 0 34 32" fill="none" xmlns="http://www.w3.org/2000/svg">
<path d="M3.66683 32C2.75016 32 1.96544 31.6736 1.31266 31.0208C0.659885 30.3681 0.333496 29.5833 0.333496 28.6667V10.3333C0.333496 9.41668 0.659885 8.63196 1.31266 7.97918C1.96544 7.3264 2.75016 7.00001 3.66683 7.00001H10.3335V3.66668C10.3335 2.75001 10.6599 1.96529 11.3127 1.31251C11.9654 0.659732 12.7502 0.333344 13.6668 0.333344H20.3335C21.2502 0.333344 22.0349 0.659732 22.6877 1.31251C23.3404 1.96529 23.6668 2.75001 23.6668 3.66668V7.00001H30.3335C31.2502 7.00001 32.0349 7.3264 32.6877 7.97918C33.3404 8.63196 33.6668 9.41668 33.6668 10.3333V28.6667C33.6668 29.5833 33.3404 30.3681 32.6877 31.0208C32.0349 31.6736 31.2502 32 30.3335 32H3.66683ZM13.6668 7.00001H20.3335V3.66668H13.6668V7.00001ZM30.3335 22H22.0002V23.6667C22.0002 24.1389 21.8404 24.5347 21.521 24.8542C21.2016 25.1736 20.8057 25.3333 20.3335 25.3333H13.6668C13.1946 25.3333 12.7988 25.1736 12.4793 24.8542C12.1599 24.5347 12.0002 24.1389 12.0002 23.6667V22H3.66683V28.6667H30.3335V22ZM15.3335 22H18.6668V18.6667H15.3335V22ZM3.66683 18.6667H12.0002V17C12.0002 16.5278 12.1599 16.132 12.4793 15.8125C12.7988 15.4931 13.1946 15.3333 13.6668 15.3333H20.3335C20.8057 15.3333 21.2016 15.4931 21.521 15.8125C21.8404 16.132 22.0002 16.5278 22.0002 17V18.6667H30.3335V10.3333H3.66683V18.6667Z" fill="#6A4DBA"/>
</svg>
