<svg width="26" height="26" viewBox="0 0 26 26" fill="none" xmlns="http://www.w3.org/2000/svg">
<path fill-rule="evenodd" clip-rule="evenodd" d="M25.5 13C25.5 19.9035 19.9035 25.5 13 25.5C6.09644 25.5 0.5 19.9035 0.5 13C0.5 6.09644 6.09644 0.5 13 0.5C19.9035 0.5 25.5 6.09644 25.5 13ZM18.5303 7.46967C18.8232 7.76256 18.8232 8.23744 18.5303 8.53033L14.0607 13L18.5303 17.4697C18.8232 17.7626 18.8232 18.2374 18.5303 18.5303C18.2374 18.8232 17.7626 18.8232 17.4697 18.5303L13 14.0607L8.53033 18.5303C8.23744 18.8232 7.76256 18.8232 7.46967 18.5303C7.17678 18.2374 7.17678 17.7626 7.46967 17.4697L11.9393 13L7.46967 8.53033C7.17678 8.23744 7.17678 7.76256 7.46967 7.46967C7.76256 7.17678 8.23744 7.17678 8.53033 7.46967L13 11.9393L17.4697 7.46967C17.7626 7.17678 18.2374 7.17678 18.5303 7.46967Z" fill="#6A4DBA"/>
</svg>
