<svg width="34" height="34" viewBox="0 0 34 34" fill="none" xmlns="http://www.w3.org/2000/svg">
<path d="M17.0002 25.3333C17.4724 25.3333 17.8682 25.1736 18.1877 24.8542C18.5071 24.5347 18.6668 24.1389 18.6668 23.6667C18.6668 23.1945 18.5071 22.7986 18.1877 22.4792C17.8682 22.1597 17.4724 22 17.0002 22C16.5279 22 16.1321 22.1597 15.8127 22.4792C15.4932 22.7986 15.3335 23.1945 15.3335 23.6667C15.3335 24.1389 15.4932 24.5347 15.8127 24.8542C16.1321 25.1736 16.5279 25.3333 17.0002 25.3333ZM17.0002 18.6667C17.4724 18.6667 17.8682 18.507 18.1877 18.1875C18.5071 17.8681 18.6668 17.4722 18.6668 17V10.3333C18.6668 9.86112 18.5071 9.46529 18.1877 9.14584C17.8682 8.8264 17.4724 8.66668 17.0002 8.66668C16.5279 8.66668 16.1321 8.8264 15.8127 9.14584C15.4932 9.46529 15.3335 9.86112 15.3335 10.3333V17C15.3335 17.4722 15.4932 17.8681 15.8127 18.1875C16.1321 18.507 16.5279 18.6667 17.0002 18.6667ZM17.0002 33.6667C14.6946 33.6667 12.5279 33.2292 10.5002 32.3542C8.47239 31.4792 6.7085 30.2917 5.2085 28.7917C3.7085 27.2917 2.521 25.5278 1.646 23.5C0.770996 21.4722 0.333496 19.3056 0.333496 17C0.333496 14.6945 0.770996 12.5278 1.646 10.5C2.521 8.47223 3.7085 6.70834 5.2085 5.20834C6.7085 3.70834 8.47239 2.52084 10.5002 1.64584C12.5279 0.770844 14.6946 0.333344 17.0002 0.333344C19.3057 0.333344 21.4724 0.770844 23.5002 1.64584C25.5279 2.52084 27.2918 3.70834 28.7918 5.20834C30.2918 6.70834 31.4793 8.47223 32.3543 10.5C33.2293 12.5278 33.6668 14.6945 33.6668 17C33.6668 19.3056 33.2293 21.4722 32.3543 23.5C31.4793 25.5278 30.2918 27.2917 28.7918 28.7917C27.2918 30.2917 25.5279 31.4792 23.5002 32.3542C21.4724 33.2292 19.3057 33.6667 17.0002 33.6667ZM17.0002 30.3333C20.7224 30.3333 23.8752 29.0417 26.4585 26.4583C29.0418 23.875 30.3335 20.7222 30.3335 17C30.3335 13.2778 29.0418 10.125 26.4585 7.54168C23.8752 4.95834 20.7224 3.66668 17.0002 3.66668C13.2779 3.66668 10.1252 4.95834 7.54183 7.54168C4.9585 10.125 3.66683 13.2778 3.66683 17C3.66683 20.7222 4.9585 23.875 7.54183 26.4583C10.1252 29.0417 13.2779 30.3333 17.0002 30.3333Z" fill="#6A4DBA"/>
</svg>
