<svg width="34" height="34" viewBox="0 0 34 34" fill="none" xmlns="http://www.w3.org/2000/svg">
<path d="M5.33331 28.6667C4.86109 28.6667 4.46525 28.507 4.14581 28.1875C3.82636 27.8681 3.66664 27.4722 3.66664 27C3.66664 26.5278 3.82636 26.132 4.14581 25.8125C4.46525 25.4931 4.86109 25.3333 5.33331 25.3333H6.99998V13.6667C6.99998 11.3611 7.69442 9.31251 9.08331 7.52084C10.4722 5.72918 12.2778 4.55557 14.5 4.00001V2.83334C14.5 2.1389 14.743 1.54862 15.2291 1.06251C15.7153 0.576399 16.3055 0.333344 17 0.333344C17.6944 0.333344 18.2847 0.576399 18.7708 1.06251C19.2569 1.54862 19.5 2.1389 19.5 2.83334V4.00001C21.7222 4.55557 23.5278 5.72918 24.9166 7.52084C26.3055 9.31251 27 11.3611 27 13.6667V25.3333H28.6666C29.1389 25.3333 29.5347 25.4931 29.8541 25.8125C30.1736 26.132 30.3333 26.5278 30.3333 27C30.3333 27.4722 30.1736 27.8681 29.8541 28.1875C29.5347 28.507 29.1389 28.6667 28.6666 28.6667H5.33331ZM17 33.6667C16.0833 33.6667 15.2986 33.3403 14.6458 32.6875C13.993 32.0347 13.6666 31.25 13.6666 30.3333H20.3333C20.3333 31.25 20.0069 32.0347 19.3541 32.6875C18.7014 33.3403 17.9166 33.6667 17 33.6667ZM10.3333 25.3333H23.6666V13.6667C23.6666 11.8333 23.0139 10.2639 21.7083 8.95834C20.4028 7.65279 18.8333 7.00001 17 7.00001C15.1666 7.00001 13.5972 7.65279 12.2916 8.95834C10.9861 10.2639 10.3333 11.8333 10.3333 13.6667V25.3333ZM1.99998 13.6667C1.52775 13.6667 1.13192 13.4861 0.812476 13.125C0.493031 12.7639 0.361087 12.3472 0.416643 11.875C0.638865 9.79168 1.2222 7.85418 2.16664 6.06251C3.11109 4.27084 4.31942 2.70834 5.79164 1.37501C6.15275 1.06945 6.56248 0.930566 7.02081 0.958344C7.47914 0.986121 7.8472 1.19445 8.12498 1.58334C8.40275 1.97223 8.51386 2.3889 8.45831 2.83334C8.40275 3.27779 8.19442 3.66668 7.83331 4.00001C6.74998 5.02779 5.86109 6.22223 5.16664 7.58334C4.4722 8.94446 4.01386 10.4167 3.79164 12C3.73609 12.4722 3.54164 12.8681 3.20831 13.1875C2.87498 13.507 2.4722 13.6667 1.99998 13.6667ZM32 13.6667C31.5278 13.6667 31.125 13.507 30.7916 13.1875C30.4583 12.8681 30.2639 12.4722 30.2083 12C29.9861 10.4167 29.5278 8.94446 28.8333 7.58334C28.1389 6.22223 27.25 5.02779 26.1666 4.00001C25.8055 3.66668 25.5972 3.27779 25.5416 2.83334C25.4861 2.3889 25.5972 1.97223 25.875 1.58334C26.1528 1.19445 26.5208 0.986121 26.9791 0.958344C27.4375 0.930566 27.8472 1.06945 28.2083 1.37501C29.6805 2.70834 30.8889 4.27084 31.8333 6.06251C32.7778 7.85418 33.3611 9.79168 33.5833 11.875C33.6389 12.3472 33.5069 12.7639 33.1875 13.125C32.868 13.4861 32.4722 13.6667 32 13.6667Z" fill="#6A4DBA"/>
</svg>
