<svg width="37" height="28" viewBox="0 0 37 28" fill="none" xmlns="http://www.w3.org/2000/svg">
<path d="M28.2498 9.29166L34.1248 3.37499C34.4582 3.04166 34.854 2.87499 35.3123 2.87499C35.7707 2.87499 36.1665 3.04166 36.4998 3.37499C36.8332 3.70832 36.9998 4.10416 36.9998 4.56249C36.9998 5.02082 36.8332 5.41666 36.4998 5.74999L29.4165 12.8333C29.0832 13.1667 28.6943 13.3333 28.2498 13.3333C27.8054 13.3333 27.4165 13.1667 27.0832 12.8333L23.5415 9.29166C23.2082 8.95832 23.0415 8.56249 23.0415 8.10416C23.0415 7.64582 23.2082 7.24999 23.5415 6.91666C23.8748 6.58332 24.2637 6.41666 24.7082 6.41666C25.1526 6.41666 25.5415 6.58332 25.8748 6.91666L28.2498 9.29166ZM13.9998 14C12.1665 14 10.5971 13.3472 9.2915 12.0417C7.98595 10.7361 7.33317 9.16666 7.33317 7.33332C7.33317 5.49999 7.98595 3.93055 9.2915 2.62499C10.5971 1.31943 12.1665 0.666656 13.9998 0.666656C15.8332 0.666656 17.4026 1.31943 18.7082 2.62499C20.0137 3.93055 20.6665 5.49999 20.6665 7.33332C20.6665 9.16666 20.0137 10.7361 18.7082 12.0417C17.4026 13.3472 15.8332 14 13.9998 14ZM0.666504 24V22.6667C0.666504 21.7222 0.909559 20.8542 1.39567 20.0625C1.88178 19.2708 2.52761 18.6667 3.33317 18.25C5.05539 17.3889 6.80539 16.743 8.58317 16.3125C10.3609 15.8819 12.1665 15.6667 13.9998 15.6667C15.8332 15.6667 17.6387 15.8819 19.4165 16.3125C21.1943 16.743 22.9443 17.3889 24.6665 18.25C25.4721 18.6667 26.1179 19.2708 26.604 20.0625C27.0901 20.8542 27.3332 21.7222 27.3332 22.6667V24C27.3332 24.9167 27.0068 25.7014 26.354 26.3542C25.7012 27.0069 24.9165 27.3333 23.9998 27.3333H3.99984C3.08317 27.3333 2.29845 27.0069 1.64567 26.3542C0.992893 25.7014 0.666504 24.9167 0.666504 24ZM3.99984 24H23.9998V22.6667C23.9998 22.3611 23.9234 22.0833 23.7707 21.8333C23.6179 21.5833 23.4165 21.3889 23.1665 21.25C21.6665 20.5 20.1526 19.9375 18.6248 19.5625C17.0971 19.1875 15.5554 19 13.9998 19C12.4443 19 10.9026 19.1875 9.37484 19.5625C7.84706 19.9375 6.33317 20.5 4.83317 21.25C4.58317 21.3889 4.38178 21.5833 4.229 21.8333C4.07623 22.0833 3.99984 22.3611 3.99984 22.6667V24ZM13.9998 10.6667C14.9165 10.6667 15.7012 10.3403 16.354 9.68749C17.0068 9.03471 17.3332 8.24999 17.3332 7.33332C17.3332 6.41666 17.0068 5.63193 16.354 4.97916C15.7012 4.32638 14.9165 3.99999 13.9998 3.99999C13.0832 3.99999 12.2984 4.32638 11.6457 4.97916C10.9929 5.63193 10.6665 6.41666 10.6665 7.33332C10.6665 8.24999 10.9929 9.03471 11.6457 9.68749C12.2984 10.3403 13.0832 10.6667 13.9998 10.6667Z" fill="#6A4DBA"/>
</svg>
